#!OML:ASF F:\twosubjects\two\wednesday\Session 1\rory1.ASF
:FULLY-SPECIFIED
:DEGREES
563
root 8.89231 18.8629 9.55335 -175.333 -0.420148 178.322
lowerback -2.5613 0.590539 -4.44476
upperback -0.108861 0.886525 -1.14178
thorax 1.27406 0.399974 1.34953
lowerneck -9.84346 -7.9932 -9.03721
upperneck 9.70593 -12.17 15.7916
head 6.11082 -5.56989 5.35651
rclavicle -5.76476e-015 4.6118e-014
rhumerus -17.9445 32.0914 -99.7953
rradius 112.212
rwrist -5.68845
rhand -38.6753 47.4437
rfingers 7.12502
rthumb -11.6906 17.7899
lclavicle -5.76476e-015 4.6118e-014
lhumerus -18.169 -38.0764 99.2245
lradius 116.017
lwrist 25.7064
lhand -30.969 19.6734
lfingers 7.12502
lthumb -4.25321 49.6107
rfemur -0.0071054 11.636 14.8207
rtibia 10.4536
rfoot -7.0341 -19.2343
rtoes 2.76362
lfemur 0.64185 -14.8541 -17.3213
ltibia 6.36034
lfoot -12.3092 16.7586
ltoes -12.0354
564
root 8.87998 18.8622 9.55074 -175.43 -0.402783 178.409
lowerback -2.54955 0.546308 -4.27593
upperback -0.0335491 0.827153 -1.13152
thorax 1.35053 0.370039 1.26408
lowerneck -10.0992 -8.0898 -9.32636
upperneck 9.98398 -12.3996 16.2534
head 6.32363 -5.65792 5.51553
rclavicle 2.08724e-015 3.18055e-015
rhumerus -19.3591 33.5807 -101.207
rradius 111.258
rwrist -4.72471
rhand -39.6681 45.439
rfingers 7.12502
rthumb -12.6479 15.8419
lclavicle 2.08724e-015 3.18055e-015
lhumerus -18.2671 -40.5848 100.288
lradius 115.376
lwrist 25.8631
lhand -31.8165 19.7532
lfingers 7.12502
lthumb -5.07152 49.6725
rfemur 0.10213 11.6696 14.8938
rtibia 10.4519
rfoot -6.94551 -19.2308
rtoes 4.07388
lfemur 0.708403 -14.7875 -17.2729
ltibia 6.4287
lfoot -12.2532 16.7517
ltoes -12.0206
565
root 8.86473 18.8596 9.54623 -175.487 -0.35161 178.398
lowerback -2.71534 0.514026 -4.19012
upperback 0.0990496 0.796477 -1.15131
thorax 1.58301 0.349758 1.1973
lowerneck -10.2774 -8.14692 -9.55068
upperneck 9.97296 -12.5337 16.6987
head 6.41714 -5.70758 5.6738
rclavicle -4.14963e-015 6.75868e-015
rhumerus -18.7343 35.7377 -101.574
rradius 110.629
rwrist -4.6262
rhand -40.3154 43.34
rfingers 7.12502
rthumb -13.2718 13.7826
lclavicle -4.14963e-015 6.75868e-015
lhumerus -18.8487 -43.3705 101.482
lradius 115.343
lwrist 27.7022
lhand -35.0944 21.6635
lfingers 7.12502
lthumb -8.23585 51.483
rfemur 0.241776 11.6372 14.8339
rtibia 10.3377
rfoot -6.84879 -19.1203
rtoes 3.31426
lfemur 0.608541 -14.6937 -17.32
ltibia 6.69946
lfoot -12.2927 16.6749
ltoes -11.9291
566
root 8.85194 18.8575 9.54094 -175.546 -0.238212 178.407
lowerback -2.87859 0.503737 -4.11107
upperback 0.182544 0.792701 -1.16426
thorax 1.76197 0.344535 1.14188
lowerneck -10.0536 -8.1988 -9.45796
upperneck 9.56742 -12.6224 16.8962
head 6.27334 -5.76703 5.71859
rclavicle 5.2181e-016 3.57812e-015
rhumerus -18.9274 37.2733 -102.237
rradius 109.583
rwrist -4.4347
rhand -40.3812 44.9296
rfingers 7.12502
rthumb -13.3353 15.3763
lclavicle 5.2181e-016 3.57812e-015
lhumerus -19.4343 -44.6412 102.342
lradius 114.648
lwrist 25.1835
lhand -35.3356 27.4028
lfingers 7.12502
lthumb -8.46865 57.213
rfemur 0.392903 11.71 14.801
rtibia 10.2083
rfoot -6.93999 -19.0989
rtoes 2.73468
lfemur 0.550978 -14.5366 -17.3648
ltibia 6.9637
lfoot -12.439 16.554
ltoes -11.9567
567
root 8.84517 18.8549 9.54018 -175.703 -0.0754896 178.631
lowerback -2.78837 0.530396 -3.87449
upperback 0.195362 0.819119 -1.11022
thorax 1.72567 0.361988 1.06539
lowerneck -9.7748 -8.34327 -9.30542
upperneck 9.32409 -12.8596 16.9647
head 6.17755 -5.90186 5.69541
rclavicle -2.33572e-015 1.86858e-014
rhumerus -19.2677 37.4744 -102.823
rradius 109.506
rwrist -4.56895
rhand -40.1807 43.5645
rfingers 7.12502
rthumb -13.1419 13.9986
lclavicle -2.33572e-015 1.86858e-014
lhumerus -19.7482 -44.4532 102.867
lradius 115.023
lwrist 28.853
lhand -38.5564 24.0815
lfingers 7.12502
lthumb -11.5759 53.7418
rfemur 0.553854 11.9376 15.0476
rtibia 10.1919
rfoot -6.91618 -19.1309
rtoes 2.97382
lfemur 0.726755 -14.3176 -17.1926
ltibia 7.01618
lfoot -12.5569 16.4536
ltoes -11.4455
568
root 8.8397 18.8526 9.53977 -175.867 0.00470964 178.703
lowerback -2.65728 0.505824 -3.80913
upperback 0.267346 0.781178 -1.09732
thorax 1.72857 0.34342 1.03957
lowerneck -10.111 -8.48519 -9.35305
upperneck 9.57161 -13.1349 17.1797
head 6.37193 -6.00968 5.7245
rclavicle 2.45996e-015 1.55052e-014
rhumerus -19.6659 36.9324 -103.25
rradius 110.213
rwrist -4.88592
rhand -39.8782 39.891
rfingers 7.12502
rthumb -12.8504 10.3066
lclavicle 2.45996e-015 1.55052e-014
lhumerus -20.1222 -43.657 103.277
lradius 115.6
lwrist 31.7531
lhand -38.8342 20.7734
lfingers 7.12502
lthumb -11.8438 50.4185
rfemur 0.699204 12.1374 15.1407
rtibia 10.2478
rfoot -6.97094 -19.1842
rtoes 3.40098
lfemur 0.934716 -14.1933 -17.1788
ltibia 6.98427
lfoot -12.5761 16.2832
ltoes -10.4994
569
root 8.82811 18.8525 9.53598 -175.826 -0.0878148 178.577
lowerback -2.74159 0.443852 -3.87037
upperback 0.311124 0.704646 -1.16211
thorax 1.82451 0.301616 1.0052
lowerneck -10.627 -8.61974 -9.42619
upperneck 9.84126 -13.4003 17.4535
head 6.61187 -6.09965 5.77064
rclavicle 6.53505e-015 1.23246e-014
rhumerus -20.7714 35.5037 -103.695
rradius 111.133
rwrist -5.17335
rhand -39.1681 37.1974
rfingers 7.12502
rthumb -12.1657 7.57119
lclavicle 6.53505e-015 1.23246e-014
lhumerus -20.547 -42.652 103.609
lradius 115.952
lwrist 31.817
lhand -36.8135 19.4196
lfingers 7.12502
lthumb -9.89475 49.167
rfemur 0.623382 12.1951 14.9713
rtibia 10.3745
rfoot -7.27351 -19.3204
rtoes 4.78205
lfemur 0.935965 -14.2455 -17.3293
ltibia 6.85562
lfoot -12.4803 16.1534
ltoes -10.0134
570
root 8.8165 18.8513 9.53565 -175.676 -0.175929 178.36
lowerback -2.83797 0.404015 -4.06504
upperback 0.222451 0.656572 -1.22657
thorax 1.78819 0.275575 1.04622
lowerneck -10.7396 -8.78327 -9.5103
upperneck 9.88559 -13.6844 17.6851
head 6.71154 -6.22784 5.81673
rclavicle 1.51573e-015 -3.97569e-015
rhumerus -20.032 34.8495 -103.233
rradius 111.947
rwrist -6.19889
rhand -38.2096 35.4108
rfingers 7.12502
rthumb -11.2414 5.73199
lclavicle 1.51573e-015 -3.97569e-015
lhumerus -21.2766 -41.735 104.16
lradius 116.02
lwrist 29.3501
lhand -34.6797 19.4216
lfingers 7.12502
lthumb -7.83566 49.2564
rfemur 0.377303 12.3582 14.6972
rtibia 10.5934
rfoot -7.37893 -19.628
rtoes 4.98616
lfemur 0.903453 -14.2955 -17.5757
ltibia 6.54182
lfoot -12.2105 16.2217
ltoes -10.3351
571
root 8.8103 18.8551 9.53963 -175.639 -0.177022 178.209
lowerback -2.8144 0.337978 -4.2689
upperback 0.179038 0.570131 -1.23907
thorax 1.73261 0.230956 1.14331
lowerneck -10.6015 -8.84359 -9.69339
upperneck 9.72762 -13.8044 18.0063
head 6.6948 -6.29597 5.94023
rclavicle 1.09332e-015 -1.98785e-015
rhumerus -19.7569 33.9443 -102.868
rradius 112.124
rwrist -7.19994
rhand -36.813 37.6821
rfingers 7.12502
rthumb -9.89419 7.93462
lclavicle 1.09332e-015 -1.98785e-015
lhumerus -21.6834 -40.7883 104.242
lradius 116.169
lwrist 27.0567
lhand -32.8611 20.5923
lfingers 7.12502
lthumb -6.08015 50.485
rfemur 0.252498 12.7208 14.5257
rtibia 10.7401
rfoot -7.5455 -20.0133
rtoes 5.2845
lfemur 0.943041 -14.2594 -17.7788
ltibia 6.35963
lfoot -11.964 16.2914
ltoes -10.6211
572
root 8.80387 18.8598 9.54259 -175.7 -0.13343 178.177
lowerback -2.68521 0.330919 -4.34218
upperback 0.192791 0.555181 -1.26577
thorax 1.67457 0.223201 1.15531
lowerneck -10.4924 -8.87846 -9.77637
upperneck 9.5678 -13.9202 18.369
head 6.67943 -6.359 6.06038
rclavicle 1.56543e-015 -3.97569e-015
rhumerus -19.4586 33.0435 -102.444
rradius 112.348
rwrist -8.21018
rhand -35.5079 39.5903
rfingers 7.12502
rthumb -8.63494 9.78687
lclavicle 1.56543e-015 -3.97569e-015
lhumerus -21.4899 -39.868 103.721
lradius 116.303
lwrist 26.2815
lhand -30.9381 23.4654
lfingers 7.12502
lthumb -4.22338 53.4033
rfemur 0.29925 12.9291 14.4758
rtibia 10.728
rfoot -7.65969 -20.1174
rtoes 6.50864
lfemur 0.928779 -14.1741 -17.8426
ltibia 6.5052
lfoot -11.9867 16.2092
ltoes -10.495
573
root 8.7945 18.8536 9.54299 -175.733 -0.0115088 178.253
lowerback -2.62001 0.315047 -4.30544
upperback 0.256615 0.533561 -1.20813
thorax 1.70462 0.212468 1.1929
lowerneck -10.7506 -8.98368 -9.90415
upperneck 9.55175 -14.1011 18.6525
head 6.78157 -6.42935 6.13847
rclavicle 1.56543e-015 -1.47101e-014
rhumerus -19.0049 32.6272 -101.966
rradius 112.553
rwrist -9.15664
rhand -34.3972 40.8274
rfingers 7.12502
rthumb -7.56293 10.9826
lclavicle 1.56543e-015 -1.47101e-014
lhumerus -21.0834 -38.7935 103.247
lradius 116.337
lwrist 25.8959
lhand -30.3372 23.9522
lfingers 7.12502
lthumb -3.64314 53.9008
rfemur 0.379642 12.9392 14.523
rtibia 10.6106
rfoot -7.30343 -19.9904
rtoes 6.06101
lfemur 0.779056 -14.002 -17.7705
ltibia 6.87737
lfoot -12.1887 15.9731
ltoes -10.0205
574
root 8.78538 18.8465 9.54676 -175.741 0.120499 178.5
lowerback -2.68621 0.259748 -4.05427
upperback 0.342355 0.540483 -1.11835
thorax 1.8334 0.250472 1.14692
lowerneck -10.875 -9.08674 -9.97887
upperneck 9.3323 -14.2537 18.9223
head 6.78795 -6.49907 6.21165
rclavicle 8.19987e-016 -1.47101e-014
rhumerus -18.6695 32.3003 -101.418
rradius 112.635
rwrist -10.1436
rhand -33.2779 42.8157
rfingers 7.12502
rthumb -6.48254 12.9349
lclavicle 8.19987e-016 -1.47101e-014
lhumerus -20.6888 -38.1423 102.696
lradius 116.65
lwrist 25.1814
lhand -31.7835 21.0429
lfingers 7.12502
lthumb -5.03964 50.963
rfemur 0.462463 13.083 14.7703
rtibia 10.3863
rfoot -6.91107 -20.058
rtoes 4.72802
lfemur 0.523168 -13.8064 -17.4937
ltibia 7.38244
lfoot -12.4916 15.6909
ltoes -9.18265
575
root 8.78202 18.8475 9.55918 -175.744 0.180089 178.783
lowerback -2.65994 0.33352 -3.86989
upperback 0.272661 0.623732 -1.0448
thorax 1.74357 0.294142 1.12221
lowerneck -10.4453 -9.19264 -9.77245
upperneck 8.95873 -14.4306 18.9811
head 6.61245 -6.62026 6.18781
rclavicle 1.78906e-015 1.35174e-014
rhumerus -18.8119 31.5438 -100.815
rradius 112.966
rwrist -11.2574
rhand -32.1827 44.5943
rfingers 7.12502
rthumb -5.42517 14.6837
lclavicle 1.78906e-015 1.35174e-014
lhumerus -20.1905 -37.9509 101.771
lradius 117.226
lwrist 24.9032
lhand -32.737 20.1268
lfingers 7.12502
lthumb -5.96028 50.0229
rfemur 0.551492 13.4285 15.0958
rtibia 10.0659
rfoot -6.63749 -20.327
rtoes 4.64784
lfemur 0.208257 -13.6798 -17.1342
ltibia 7.87416
lfoot -12.7341 15.5878
ltoes -9.31511
576
root 8.77835 18.8485 9.5643 -175.773 0.247417 178.965
lowerback -2.63717 0.307312 -3.82956
upperback 0.134961 0.57483 -0.891918
thorax 1.59015 0.271681 1.25383
lowerneck -9.87385 -9.19817 -9.81815
upperneck 8.70173 -14.4273 18.9784
head 6.43334 -6.6632 6.2187
rclavicle 1.963e-015 -1.98785e-014
rhumerus -18.8668 30.9264 -100.16
rradius 113.364
rwrist -12.5386
rhand -31.039 45.6519
rfingers 7.12502
rthumb -4.32083 15.716
lclavicle 1.963e-015 -1.98785e-014
lhumerus -20.7958 -36.6907 101.335
lradius 117.35
lwrist 24.6535
lhand -32.3903 19.2863
lfingers 7.12502
lthumb -5.62554 49.1917
rfemur 0.672358 13.5147 15.3033
rtibia 9.83283
rfoot -6.70087 -20.2854
rtoes 5.67604
lfemur 0.0737757 -13.5619 -16.9247
ltibia 8.14619
lfoot -12.826 15.6115
ltoes -10.3478
